<?xml version="1.0" encoding="utf-8"?>
<!-- Generator: Adobe Illustrator 23.1.0, SVG Export Plug-In . SVG Version: 6.00 Build 0)  -->
<svg version="1.1" id="Layer_1" xmlns="http://www.w3.org/2000/svg" xmlns:xlink="http://www.w3.org/1999/xlink" x="0px" y="0px"
	 viewBox="0 0 29.29 40" style="enable-background:new 0 0 29.29 40;" xml:space="preserve">
<style type="text/css">
	.st0{fill:#5B6570;}
</style>
<path class="st0" d="M19.95,2.19C18.54,0.78,16.65,0,14.64,0c-4.14,0-7.5,3.36-7.5,7.5V10H3.39c-0.65,0-1.19,0.49-1.24,1.14
	L0.02,34.55c-0.13,1.4,0.34,2.79,1.29,3.83C2.25,39.41,3.6,40,5,40h19.29c1.4,0,2.75-0.59,3.69-1.63c0.95-1.03,1.41-2.43,1.29-3.83
	l-2.13-23.41c-0.06-0.64-0.6-1.14-1.25-1.14h-3.75V7.5C22.14,5.49,21.37,3.6,19.95,2.19z M9.64,7.5c0-2.76,2.24-5,5-5
	c1.34,0,2.6,0.52,3.54,1.46s1.46,2.2,1.46,3.54V10h-10V7.5z M24.75,12.5l2.03,22.27c0.07,0.71-0.16,1.39-0.64,1.91
	c-0.48,0.52-1.14,0.81-1.85,0.81H5c-0.71,0-1.37-0.29-1.84-0.82c-0.48-0.52-0.71-1.2-0.64-1.91L4.54,12.5h2.61v3.75
	c0,0.69,0.56,1.25,1.25,1.25c0.69,0,1.25-0.56,1.25-1.25V12.5h10v3.75c0,0.69,0.56,1.25,1.25,1.25s1.25-0.56,1.25-1.25V12.5H24.75z"
	/>
</svg>
